<?xml version="1.0" encoding="UTF-8" standalone="yes"?>
<svg viewBox="0 0 100 100">
  <g transform="matrix(0.01953125,0,0,-0.01953508,0,100)" style="fill:#000000;stroke:none">
    <path
      id="icon-collection"
      d="M 4,3727 C 416.82556,3493.0961 704.43764,3335.9085 1055,3139 708.79873,2955.8429 346.28663,2756.196 0,2555 23.817919,2522.7444 63.562723,2519.9302 95,2494 457.29679,2300.8721 722.49459,2151.5017 1055,1971 566.50238,1703.5977 270.43675,1535.0705 4,1383 946.34315,891.86731 1902.8945,366.96772 2560,0 c 948.3921,510.37243 1767.3275,951.91931 2556,1383 -379.243,210.6323 -678.3466,373.2651 -1051,588 332.7861,191.7852 786.4633,435.3025 1055,584 -381.2183,210.6111 -682.9847,368.4894 -1055,584 412.9132,223.7935 722.4254,400.0277 1051,588 C 4190.6187,4206.3639 3375.479,4653.9205 2554,5119 1644.0841,4598.9098 1001.5156,4258.4412 4,3727 Z M 2560,2317 c 389.6115,198.3244 782.3731,425.3875 1130,615 230.049,-128.5549 455.1376,-247.2078 688,-377 -622.9364,-332.0012 -1257.0316,-692.1429 -1818,-990 -618.8554,339.7461 -1263.5648,683.0705 -1818,990 242.39454,120.1335 483.8402,276.3561 687,375 415.9426,-236.1945 707.9999,-385.4615 1131,-613 z m 5.9341,-1161.7253 C 2993.5404,1388.4222 3321.1539,1566.8083 3690,1760 3923.5874,1633.3659 4148.38,1501.8058 4368.7802,1381.8681 3714.2537,1026.9882 3110.1976,702.86192 2560,400 1880.8501,772.49661 1368.0815,1057.2261 756.16484,1395.0549 1033.3945,1548.66 1179.062,1629.389 1428,1759 c 467.2252,-254.7235 810.4762,-448.4006 1137.9341,-603.7253 z"
    />
  </g>
</svg>
