<?xml version="1.0" encoding="UTF-8" standalone="yes"?>
<svg xmlns:svg="http://www.w3.org/2000/svg" viewBox="0 0 100 100">
    <g id="layer1" transform="translate(0,-270.54165)">
        <g
                id="g4507"
                transform="matrix(0.0195481,0,0,-0.0195481,-0.04029966,370.67848)"
                style="fill:#000000;stroke:none">
            <path
                    id="path4487"
                    d="m 2354,5110 c -221,-20 -486,-77 -672,-146 -53,-19 -169,-71 -257,-114 C 955,4621 587,4272 322,3804 91,3396 -29,2848 9,2377 54,1832 239,1364 576,940 788,674 1094,432 1425,270 1617,175 1733,132 1917,85 2153,25 2303,7 2560,7 c 257,0 407,18 643,78 184,47 299,90 493,185 256,125 479,283 675,479 249,250 465,583 584,905 123,334 182,728 157,1064 -34,471 -170,881 -411,1243 -211,317 -415,522 -726,731 -129,87 -382,215 -537,272 -133,49 -349,103 -509,126 -152,23 -438,33 -575,20 z m 463,-555 c 216,-29 458,-102 642,-195 76,-38 158,-86 171,-100 3,-3 50,-38 105,-77 276,-196 507,-469 639,-755 133,-288 196,-567 196,-868 0,-650 -307,-1247 -835,-1623 -55,-39 -102,-74 -105,-77 -32,-34 -224,-131 -360,-182 -459,-171 -961,-171 -1420,0 -136,51 -328,148 -360,182 -3,3 -50,38 -105,77 -276,196 -507,469 -639,755 -133,288 -196,567 -196,868 0,650 307,1247 835,1623 55,39 102,74 105,77 13,14 95,62 171,100 178,90 426,166 631,194 141,19 381,19 525,1 z"/>
            <path
                    id="path4489"
                    d="m 2500,4412 c -40,-18 -73,-49 -91,-85 -19,-36 -20,-55 -17,-186 3,-166 12,-187 90,-231 82,-46 194,-7 234,81 13,31 16,62 12,181 -4,161 -11,181 -80,224 -38,24 -112,32 -148,16 z"/>
            <path
                    id="path4491"
                    d="m 1648,4176 c -73,-32 -111,-99 -99,-174 7,-45 58,-150 88,-180 7,-7 13,-18 13,-23 0,-17 55,-71 92,-90 49,-25 94,-24 148,4 65,33 85,66 85,140 0,56 -5,70 -49,147 -27,47 -60,100 -73,118 -46,62 -138,88 -205,58 z"/>
            <path
                    id="path4493"
                    d="m 3332,4169 c -49,-25 -69,-50 -137,-169 -62,-108 -70,-167 -32,-227 28,-45 95,-83 143,-83 63,1 151,63 169,119 3,11 10,21 14,21 4,0 25,34 46,77 44,85 50,141 20,198 -40,73 -146,104 -223,64 z"/>
            <path
                    id="path4495"
                    d="m 1070,3573 c -39,-6 -83,-33 -110,-66 -21,-26 -25,-42 -25,-97 0,-57 4,-72 28,-103 25,-33 95,-80 205,-137 122,-64 244,-8 259,118 4,39 1,57 -21,100 -22,43 -37,58 -96,92 -147,86 -189,102 -240,93 z"/>
            <path
                    id="path4497"
                    d="m 4080,3500 c -63,-27 -146,-65 -185,-85 -38,-19 -324,-142 -633,-273 l -564,-239 -51,14 c -160,44 -353,-50 -425,-205 -23,-49 -26,-70 -26,-152 0,-105 17,-158 74,-230 62,-79 189,-140 290,-140 101,0 228,61 290,140 35,45 69,116 70,146 0,31 105,115 686,547 280,208 531,396 558,418 27,22 57,46 68,53 16,12 18,18 9,35 -7,12 -19,21 -29,20 -9,0 -69,-23 -132,-49 z"/>
            <path
                    id="path4499"
                    d="m 819,2720 c -41,-12 -77,-40 -100,-77 -17,-27 -21,-45 -17,-92 5,-69 32,-113 90,-142 37,-19 55,-20 187,-17 137,3 148,4 179,28 56,42 75,82 70,151 -5,69 -26,103 -84,136 -35,20 -52,23 -169,22 -71,0 -142,-4 -156,-9 z"/>
            <path
                    id="path4501"
                    d="m 4005,2722 c -36,-12 -74,-43 -96,-79 -17,-28 -21,-45 -17,-94 5,-69 26,-103 84,-137 36,-21 48,-22 184,-20 131,3 149,5 182,26 58,36 81,82 76,151 -5,69 -32,113 -88,141 -34,17 -58,20 -172,19 -73,-1 -142,-4 -153,-7 z"/>
            <path
                    id="path4503"
                    d="m 1210,1973 c -33,-13 -206,-116 -228,-136 -67,-62 -69,-172 -4,-240 66,-70 140,-67 275,9 97,56 132,86 158,136 57,111 -25,240 -150,237 -20,0 -43,-3 -51,-6 z"/>
            <path
                    id="path4505"
                    d="m 3778,1960 c -49,-26 -78,-69 -85,-128 -4,-39 -1,-57 21,-100 27,-52 64,-80 219,-160 85,-45 170,-29 227,41 21,26 25,42 25,98 0,60 -3,71 -30,104 -30,37 -179,131 -244,153 -48,17 -90,14 -133,-8 z"/>
        </g>
    </g>
</svg>
