<?xml  version="1.0" encoding="UTF-8" standalone="yes"?>
<svg xmlns="http://www.w3.org/2000/svg" viewBox="0 0 100 100">
  <g
     transform="matrix(0.01960578,0,0,-0.01960578,-0.40902186,100.19606)"
     id="g8"
     style="fill:#000000;stroke:none">
    <path
       d="m 2400,5095 c -162,-34 -278,-93 -381,-195 -103,-102 -141,-180 -147,-303 -3,-48 1,-113 7,-145 21,-108 -20,-170 -148,-223 C 1237,4025 883,3676 762,3275 718,3128 710,3061 710,2823 689.27288,2514.3354 683.86043,2369.3289 659,2050 626,1886 572,1711 532,1635 493,1562 444,1482 413,1440 353,1360 227,1240 137,1179 24,1101 17,1088 22,953 l 3,-105 46,-42 c 26,-23 65,-48 86,-54 58,-17 4748,-17 4806,0 21,6 60,31 86,54 l 46,42 3,105 c 5,135 -2,148 -115,226 -90,61 -216,181 -276,261 -31,42 -80,122 -119,195 -40,76 -94,251 -127,415 -25.0079,295.2403 -39.2915,571.9826 -51,773 0,238 -8,305 -52,452 -121,401 -475,750 -969,954 -128,53 -169,115 -148,223 6,32 10,97 7,145 -6,123 -44,201 -147,303 -170,169 -449,246 -701,195 z m 311,-1099 c 137,-58 170,-186 72,-277 -56,-53 -87,-62 -253,-70 -173,-8 -253,-23 -385,-74 -218,-84 -388,-239 -468,-428 -30,-71 -31,-75 -41,-337 -6,-146 -15,-271 -19,-278 -5,-7 -5,-18 1,-25 10,-14 -2,-289 -17,-377 -5,-30 -12,-80 -16,-110 -15,-135 -89,-417 -142,-540 -40,-92 -118,-243 -144,-279 -78,-109 -263,-128 -365,-38 -84,73 -84,119 0,280 122,236 189,484 217,810 7,75 15,137 18,137 3,0 6,145 6,323 0,281 2,332 19,402 85,359 393,665 816,808 119,41 276,75 395,87 113,12 263,5 306,-14 z"
       id="path4"/>
    <path
       d="m 1670,544 c 0,-21 41,-102 79,-157 68,-99 195,-204 326,-270 126,-62 327,-107 485,-107 380,0 723,186 865,469 45,90 138,81 -865,81 -810,0 -890,-1 -890,-16 z"
       id="path6"/>
  </g>
  <ellipse
     style="opacity:1;fill:#ffffff;fill-opacity:1;stroke:none;stroke-width:0.17980416"
     id="path4491"
     cx="49.76849"
     cy="10.71394"
     rx="4.4528379"
     ry="3.5091023" />
</svg>
