<?xml version="1.0" standalone="no"?>
<!DOCTYPE svg PUBLIC "-//W3C//DTD SVG 20010904//EN"
 "http://www.w3.org/TR/2001/REC-SVG-20010904/DTD/svg10.dtd">
<svg version="1.0" xmlns="http://www.w3.org/2000/svg"
 width="512.000000pt" height="512.000000pt" viewBox="0 0 512.000000 512.000000"
 preserveAspectRatio="xMidYMid meet">
<g transform="translate(0.000000,512.000000) scale(0.100000,-0.100000)"
fill="#000000" stroke="none">
<path d="M2280 5114 c-457 -56 -865 -215 -1235 -482 -220 -159 -480 -432 -630
-662 -41 -63 -175 -297 -175 -305 0 -3 -11 -29 -25 -60 -62 -135 -100 -245
-146 -425 -59 -233 -64 -279 -64 -610 0 -315 6 -384 47 -560 121 -518 345
-918 715 -1281 404 -396 906 -642 1456 -714 158 -20 516 -20 674 0 343 45 684
165 983 345 309 186 618 480 815 775 46 70 185 310 185 320 0 3 11 29 25 60
81 177 147 396 192 635 23 123 26 656 5 790 -36 222 -111 479 -197 665 -14 31
-25 57 -25 60 0 8 -134 242 -175 305 -119 182 -325 412 -500 559 -347 290
-757 481 -1206 562 -106 19 -165 22 -404 24 -154 2 -296 1 -315 -1z m-215
-1460 c28 -14 70 -38 95 -53 25 -15 77 -46 115 -68 39 -22 111 -64 160 -93 50
-29 122 -71 160 -93 39 -22 90 -52 115 -67 43 -26 169 -99 315 -183 39 -22 86
-50 105 -62 19 -12 67 -40 105 -62 39 -22 111 -64 160 -93 50 -29 122 -71 160
-93 178 -102 225 -149 225 -226 0 -32 -8 -54 -31 -86 -33 -46 -35 -47 -591
-369 -54 -31 -142 -81 -195 -112 -54 -31 -127 -74 -163 -94 -36 -21 -137 -79
-225 -130 -197 -113 -263 -152 -387 -225 -165 -96 -227 -112 -292 -74 -42 25
-63 55 -75 111 -6 25 -11 449 -12 1008 -3 1064 -5 1015 59 1067 40 34 130 32
197 -3z"/>
</g>
</svg>
