<?xml version="1.0" standalone="no"?>
<!DOCTYPE svg PUBLIC "-//W3C//DTD SVG 20010904//EN"
 "http://www.w3.org/TR/2001/REC-SVG-20010904/DTD/svg10.dtd">
<svg version="1.0" xmlns="http://www.w3.org/2000/svg" viewBox="0 0 100 100">
<g transform="matrix(0.01953125,0,0,-0.01953508,0,100)" fill="#000000" stroke="none">
<path d="M1435 5094 c-269 -39 -518 -138 -735 -292 -118 -83 -307 -270 -387
-382 -154 -217 -251 -450 -287 -693 -28 -185 -19 -477 20 -665 77 -371 344
-763 669 -982 262 -176 506 -261 808 -281 414 -28 721 48 1040 257 l100 65 49
-53 c28 -29 80 -85 117 -124 l68 -70 6 -117 c10 -187 41 -278 135 -407 67 -90
891 -916 1172 -1174 88 -80 180 -134 272 -156 28 -7 102 -11 190 -8 141 3 144
4 206 37 96 52 179 151 219 261 18 50 17 242 -3 315 -33 130 -73 192 -231 356
-265 277 -1027 1033 -1098 1090 -141 112 -218 139 -399 139 l-121 0 -122 118
c-68 65 -123 122 -123 126 0 4 25 46 56 93 154 234 227 452 254 757 19 217
-13 490 -80 680 -108 306 -289 563 -533 758 -127 101 -183 136 -320 202 -238
114 -385 146 -692 151 -121 2 -233 1 -250 -1z m455 -508 c225 -46 396 -136
569 -301 150 -143 262 -324 323 -521 27 -89 31 -116 35 -267 6 -191 -4 -273
-48 -404 -98 -292 -285 -515 -562 -672 -181 -103 -448 -156 -659 -131 -294 34
-474 117 -686 315 -253 237 -373 531 -360 886 13 335 132 588 390 825 139 127
324 225 503 267 94 22 111 24 255 25 96 1 152 -4 240 -22z"/>
</g>
</svg>
