<?xml version="1.0" standalone="no"?>
<!DOCTYPE svg PUBLIC "-//W3C//DTD SVG 20010904//EN"
 "http://www.w3.org/TR/2001/REC-SVG-20010904/DTD/svg10.dtd">
<svg version="1.0" xmlns="http://www.w3.org/2000/svg"
 width="512.000000pt" height="512.000000pt" viewBox="0 0 512.000000 512.000000"
 preserveAspectRatio="xMidYMid meet">
<g transform="translate(0.000000,512.000000) scale(0.100000,-0.100000)"
fill="#000000" stroke="none">
<path d="M2280 5114 c-457 -56 -865 -215 -1235 -482 -220 -159 -480 -432 -630
-662 -41 -63 -175 -297 -175 -305 0 -3 -11 -29 -25 -60 -62 -135 -100 -245
-146 -425 -59 -233 -64 -279 -64 -610 0 -315 6 -384 47 -560 121 -518 345
-918 715 -1281 404 -396 906 -642 1456 -714 158 -20 516 -20 674 0 343 45 684
165 983 345 309 186 618 480 815 775 46 70 185 310 185 320 0 3 11 29 25 60
81 177 147 396 192 635 23 123 26 656 5 790 -36 222 -111 479 -197 665 -14 31
-25 57 -25 60 0 8 -134 242 -175 305 -119 182 -325 412 -500 559 -347 290
-757 481 -1206 562 -106 19 -165 22 -404 24 -154 2 -296 1 -315 -1z m1470
-1769 l141 -139 -858 -858 c-472 -472 -861 -858 -865 -858 -4 0 -217 210 -474
466 l-466 466 143 144 144 144 325 -325 325 -325 715 715 c393 393 718 714
722 713 4 -2 71 -66 148 -143z"/>
</g>
</svg>
