<?xml version="1.0" standalone="no"?>
<!DOCTYPE svg PUBLIC "-//W3C//DTD SVG 20010904//EN"
 "http://www.w3.org/TR/2001/REC-SVG-20010904/DTD/svg10.dtd">
<svg version="1.0" xmlns="http://www.w3.org/2000/svg"
 width="512.000000pt" height="512.000000pt" viewBox="0 0 512.000000 512.000000"
 preserveAspectRatio="xMidYMid meet">
<g transform="translate(0.000000,512.000000) scale(0.100000,-0.100000)"
fill="#000000" stroke="none">
<path d="M2280 5114 c-515 -63 -976 -260 -1365 -585 -92 -77 -435 -422 -435
-438 0 -6 -22 -35 -48 -64 -26 -29 -54 -68 -61 -87 -8 -19 -42 -93 -76 -165
-137 -285 -167 -364 -226 -595 -59 -233 -64 -279 -64 -610 0 -315 6 -384 47
-560 121 -518 345 -918 715 -1281 404 -396 906 -642 1456 -714 158 -20 516
-20 674 0 343 45 684 165 983 345 309 186 618 480 815 775 46 70 185 310 185
320 0 3 11 29 25 60 81 177 147 396 192 635 23 123 26 656 5 790 -36 222 -111
479 -197 665 -14 31 -25 57 -25 60 0 8 -134 242 -175 305 -119 182 -325 412
-500 559 -347 290 -757 481 -1206 562 -106 19 -165 22 -404 24 -154 2 -296 1
-315 -1z m654 -1071 c-8 -170 -11 -236 -18 -383 -3 -63 -8 -160 -10 -215 -3
-55 -7 -134 -10 -175 -3 -41 -8 -133 -11 -205 -3 -71 -8 -170 -10 -220 -3 -49
-7 -142 -10 -205 -3 -63 -7 -162 -10 -220 -3 -58 -7 -157 -10 -220 -3 -63 -7
-127 -11 -142 l-6 -28 -268 0 -269 0 -4 43 c-3 23 -5 53 -5 67 1 14 -2 86 -6
160 -4 74 -9 180 -11 235 -3 55 -7 147 -10 205 -3 58 -7 155 -10 215 -3 61 -8
148 -11 195 -3 47 -7 130 -10 185 -2 55 -7 150 -10 210 -8 160 -14 306 -18
420 -2 55 -7 116 -11 137 -4 20 -4 46 0 57 6 21 10 21 381 21 l374 0 -6 -137z
m-264 -2248 c50 -9 151 -67 195 -112 39 -39 110 -177 115 -223 4 -37 2 -173
-2 -190 -30 -108 -57 -158 -128 -229 -47 -47 -122 -87 -184 -97 -52 -9 -170
-9 -216 0 -99 19 -206 105 -267 215 -36 65 -48 117 -48 211 0 93 12 144 48
212 42 77 88 126 162 168 96 55 192 68 325 45z"/>
</g>
</svg>
