<?xml version="1.0" standalone="no"?>
<!DOCTYPE svg PUBLIC "-//W3C//DTD SVG 20010904//EN"
 "http://www.w3.org/TR/2001/REC-SVG-20010904/DTD/svg10.dtd">
<svg version="1.0" xmlns="http://www.w3.org/2000/svg"
 width="512.000000pt" height="512.000000pt" viewBox="0 0 512.000000 512.000000"
 preserveAspectRatio="xMidYMid meet">
<metadata>
Created by potrace 1.15, written by Peter Selinger 2001-2017
</metadata>
<g transform="translate(0.000000,512.000000) scale(0.100000,-0.100000)"
fill="#000000" stroke="none">
<path d="M560 5105 c0 -9 -8 -18 -17 -21 -19 -6 -60 -24 -125 -53 -21 -9 -38
-22 -38 -28 0 -7 -5 -13 -11 -13 -28 0 -202 -163 -214 -201 -4 -10 -11 -19
-16 -19 -5 0 -9 -6 -9 -14 0 -8 -8 -21 -17 -28 -21 -16 -43 -52 -43 -72 0 -7
-7 -19 -15 -26 -8 -7 -15 -26 -15 -42 0 -21 -6 -31 -20 -35 -20 -5 -20 -14
-20 -1983 0 -1969 0 -1978 20 -1983 13 -3 20 -14 20 -28 0 -28 38 -109 51
-109 6 0 8 -4 5 -9 -3 -4 3 -16 14 -26 11 -10 20 -23 20 -29 0 -6 11 -23 25
-38 14 -15 25 -29 25 -31 0 -7 112 -116 146 -142 18 -14 37 -25 43 -25 6 0 11
-4 11 -9 0 -5 11 -12 25 -15 14 -4 25 -11 25 -16 0 -11 81 -50 104 -50 8 0 18
-5 21 -10 3 -6 21 -10 38 -10 18 0 43 -9 57 -20 25 -19 54 -20 1910 -20 1856
0 1885 1 1910 20 14 11 37 20 53 20 15 0 35 4 45 9 31 17 90 41 99 41 5 0 16
9 26 20 9 11 24 20 32 20 8 0 15 5 15 10 0 6 5 10 11 10 6 0 25 11 43 25 35
26 146 135 146 142 0 3 6 11 13 18 28 33 37 45 37 53 0 5 9 17 20 27 11 10 17
21 15 25 -3 4 2 10 10 14 8 3 15 14 15 24 0 11 7 25 15 32 8 7 15 26 15 42 0
21 6 31 20 35 20 5 20 14 20 719 l0 714 -295 0 -294 0 -3 -592 c-2 -464 -6
-592 -16 -596 -6 -2 -10 -8 -6 -13 3 -5 0 -9 -5 -9 -6 0 -11 -9 -11 -21 0 -42
-59 -119 -92 -119 -10 0 -18 -4 -18 -10 0 -5 -11 -10 -25 -10 -14 0 -25 -4
-25 -10 0 -28 -112 -30 -1770 -30 -1658 0 -1770 2 -1770 30 0 6 -11 10 -25 10
-14 0 -25 5 -25 10 0 6 -8 10 -18 10 -33 0 -92 77 -92 119 0 12 -5 21 -11 21
-5 0 -8 4 -5 9 4 5 0 11 -6 13 -10 4 -13 355 -13 1737 0 1639 1 1733 18 1745
9 8 17 26 17 43 0 36 62 113 91 113 10 0 19 6 19 14 0 8 14 16 33 19 17 3 50
10 72 16 26 7 236 11 603 11 l562 0 0 295 0 295 -725 0 c-644 0 -725 -2 -725
-15z"/>
<path d="M2260 5101 c0 -16 193 -213 703 -716 64 -64 117 -120 117 -125 0 -4
-10 -14 -22 -23 -28 -18 -102 -87 -94 -87 3 0 -13 -17 -36 -37 -24 -21 -45
-42 -47 -47 -2 -4 -12 -16 -23 -25 -44 -37 -88 -83 -88 -91 0 -6 -4 -10 -8
-10 -4 0 -51 -43 -104 -95 -52 -52 -100 -95 -106 -95 -13 0 -24 -47 -17 -71 4
-10 12 -19 18 -19 7 0 19 -9 27 -21 27 -37 45 -55 63 -62 10 -4 15 -11 12 -17
-3 -5 0 -10 7 -10 8 0 20 -9 28 -21 21 -29 58 -69 64 -69 10 0 46 -34 46 -43
0 -8 57 -67 65 -67 9 0 45 -35 45 -43 0 -12 22 -32 43 -40 10 -4 15 -11 12
-17 -3 -5 0 -10 7 -10 12 0 48 -34 48 -45 0 -7 39 -45 46 -45 7 0 64 -57 64
-64 0 -7 38 -46 45 -46 8 0 45 -34 45 -42 0 -12 38 -48 51 -48 5 0 7 -4 4 -10
-3 -5 0 -10 7 -10 12 0 48 -34 48 -45 0 -7 39 -45 45 -45 9 0 75 -66 75 -74 0
-10 27 -36 36 -36 10 0 74 -70 74 -81 0 -5 5 -9 11 -9 16 0 69 -56 69 -73 0
-33 83 -38 101 -6 18 34 61 79 76 79 7 0 13 4 13 10 0 16 61 80 76 80 8 0 14
4 14 8 0 13 82 102 94 102 6 1 23 19 39 41 15 22 34 42 43 46 17 6 64 53 80
79 6 10 19 22 30 28 10 6 25 19 32 29 7 9 18 17 24 17 15 0 798 -782 798 -797
0 -8 12 -13 30 -13 l30 0 0 1425 0 1425 -1430 0 c-1388 0 -1430 -1 -1430 -19z"/>
</g>
</svg>
