<?xml version="1.0" standalone="no"?>
<!DOCTYPE svg PUBLIC "-//W3C//DTD SVG 20010904//EN"
 "http://www.w3.org/TR/2001/REC-SVG-20010904/DTD/svg10.dtd">
<svg version="1.0" xmlns="http://www.w3.org/2000/svg"
 width="512.000000pt" height="512.000000pt" viewBox="0 0 512.000000 512.000000"
 preserveAspectRatio="xMidYMid meet">
<g transform="translate(0.000000,512.000000) scale(0.100000,-0.100000)"
fill="#000000" stroke="none">
<path d="M560 5105 c0 -9 -8 -18 -17 -21 -19 -6 -60 -24 -125 -53 -21 -9 -38
-22 -38 -28 0 -7 -5 -13 -11 -13 -28 0 -202 -163 -214 -201 -4 -10 -11 -19
-16 -19 -5 0 -9 -6 -9 -14 0 -8 -8 -21 -17 -28 -21 -16 -43 -52 -43 -72 0 -7
-7 -19 -15 -26 -8 -7 -15 -26 -15 -42 0 -21 -6 -31 -20 -35 -20 -5 -20 -14
-20 -1983 0 -1969 0 -1978 20 -1983 13 -3 20 -14 20 -28 0 -28 38 -109 51
-109 6 0 8 -4 5 -9 -3 -4 3 -16 14 -26 11 -10 20 -23 20 -29 0 -6 11 -23 25
-38 14 -15 25 -29 25 -31 0 -7 112 -116 146 -142 18 -14 37 -25 43 -25 6 0 11
-4 11 -9 0 -5 11 -12 25 -15 14 -4 25 -11 25 -16 0 -11 81 -50 104 -50 8 0 18
-5 21 -10 3 -6 21 -10 38 -10 18 0 43 -9 57 -20 25 -19 54 -20 1910 -20 1856
0 1885 1 1910 20 14 11 37 20 53 20 15 0 35 4 45 9 31 17 90 41 99 41 5 0 16
9 26 20 9 11 24 20 32 20 8 0 15 5 15 10 0 6 5 10 11 10 6 0 25 11 43 25 35
26 146 135 146 142 0 3 6 11 13 18 28 33 37 45 37 53 0 5 9 17 20 27 11 10 17
21 15 25 -3 4 2 10 10 14 8 3 15 14 15 24 0 11 7 25 15 32 8 7 15 26 15 42 0
21 6 31 20 35 20 5 20 14 20 1989 0 1775 -2 1984 -15 1984 -9 0 -18 8 -21 18
-6 18 -24 59 -53 124 -9 21 -22 38 -28 38 -7 0 -13 5 -13 11 0 28 -163 202
-201 214 -10 4 -19 11 -19 16 0 5 -6 9 -14 9 -8 0 -21 8 -28 18 -16 20 -52 42
-72 42 -7 0 -19 7 -26 15 -7 8 -26 15 -42 15 -21 0 -31 6 -35 20 -5 20 -14 20
-1999 20 -1784 0 -1994 -2 -1994 -15z m3754 -597 c8 -10 26 -18 43 -18 36 0
113 -62 113 -91 0 -10 6 -19 14 -19 8 0 16 -14 19 -32 3 -18 10 -53 16 -78 17
-69 11 -3432 -7 -3438 -6 -2 -10 -8 -6 -13 3 -5 0 -9 -5 -9 -6 0 -11 -9 -11
-21 0 -42 -59 -119 -92 -119 -10 0 -18 -4 -18 -10 0 -5 -11 -10 -25 -10 -14 0
-25 -4 -25 -10 0 -28 -112 -30 -1770 -30 -1658 0 -1770 2 -1770 30 0 6 -11 10
-25 10 -14 0 -25 5 -25 10 0 6 -8 10 -18 10 -33 0 -92 77 -92 119 0 12 -5 21
-11 21 -5 0 -8 4 -5 9 4 5 0 11 -6 13 -10 4 -13 355 -13 1737 0 1639 1 1733
18 1745 9 8 17 26 17 43 0 36 62 113 91 113 10 0 19 6 19 14 0 8 14 16 33 19
17 3 48 10 67 15 22 7 650 10 1748 9 1619 -2 1714 -3 1726 -19z"/>
<path d="M1813 3795 c-31 -13 -66 -43 -203 -175 -166 -159 -281 -267 -314
-295 -28 -24 -35 -37 -36 -67 0 -33 8 -44 72 -105 39 -37 100 -95 134 -128 35
-33 120 -114 190 -180 70 -66 163 -155 208 -197 44 -43 84 -78 88 -78 9 0 -50
-58 -226 -225 -65 -60 -152 -143 -193 -182 -42 -40 -80 -73 -85 -73 -4 0 -8
-7 -8 -15 0 -8 -4 -15 -8 -15 -4 0 -44 -35 -89 -77 -105 -101 -106 -114 -7
-208 84 -81 350 -334 413 -393 55 -53 81 -68 81 -50 0 9 3 9 10 -2 6 -9 10
-10 10 -3 0 6 10 15 22 18 11 4 41 26 65 49 122 115 153 146 153 156 0 5 5 10
11 10 6 0 25 15 43 33 18 17 88 84 155 147 67 63 151 143 186 178 36 34 69 62
73 62 5 0 40 -30 78 -66 132 -126 368 -350 447 -424 44 -41 101 -95 127 -120
74 -72 88 -68 228 68 36 35 76 71 89 79 12 8 20 19 17 24 -3 5 -1 9 4 9 5 0
45 34 88 76 44 42 89 83 101 91 13 8 20 19 17 24 -3 5 0 9 5 9 6 0 31 20 56
44 68 67 64 89 -32 179 -42 39 -104 99 -139 132 -34 33 -119 114 -189 180 -69
66 -165 156 -212 201 l-85 81 24 15 c12 9 57 49 99 89 42 41 129 124 193 184
65 61 168 159 229 218 62 60 122 115 135 124 28 19 31 79 5 100 -10 8 -12 11
-4 7 9 -5 12 -3 7 5 -4 6 -11 9 -16 6 -12 -8 -51 36 -43 48 3 6 1 7 -6 3 -7
-5 -32 12 -64 45 -29 30 -43 47 -32 39 18 -14 19 -14 6 2 -7 10 -17 16 -21 13
-4 -3 -13 2 -20 10 -7 8 -9 15 -4 15 11 0 -14 25 -26 26 -6 1 -15 2 -21 3 -5
0 -8 5 -5 10 3 5 -1 12 -10 15 -8 3 -12 10 -9 16 3 5 0 7 -8 5 -7 -3 -22 4
-33 16 -13 15 -14 20 -4 15 8 -4 6 -1 -5 6 -30 20 -100 89 -100 99 0 5 -4 9
-10 10 -20 2 -45 20 -40 28 3 5 -2 12 -11 15 -8 3 -12 10 -9 16 3 5 0 7 -8 4
-8 -3 -21 2 -29 10 -9 8 -27 14 -42 13 -26 -2 -63 -35 -351 -312 -40 -38 -132
-126 -205 -195 -73 -69 -139 -131 -147 -139 -16 -15 -14 -16 -108 74 -59 56
-317 301 -438 415 -44 41 -101 96 -127 123 -27 26 -50 47 -52 47 -1 -1 -17 -7
-35 -15z"/>
</g>
</svg>
